<?xml version="1.0" standalone="no"?>
<!DOCTYPE svg PUBLIC "-//W3C//DTD SVG 20010904//EN"
 "http://www.w3.org/TR/2001/REC-SVG-20010904/DTD/svg10.dtd">
<svg version="1.0" xmlns="http://www.w3.org/2000/svg"
 width="512.000000pt" height="512.000000pt" viewBox="0 0 512.000000 512.000000"
 preserveAspectRatio="xMidYMid meet">
<metadata>
Created by potrace 1.11, written by Peter Selinger 2001-2013
</metadata>
<g transform="translate(0.000000,512.000000) scale(0.100000,-0.100000)"
fill="#000000" stroke="none">
<path d="M1557 4412 c-16 -17 -17 -91 -17 -861 0 -561 3 -849 10 -862 12 -22
59 -26 78 -7 9 9 12 95 12 327 0 174 3 542 7 819 l6 502 161 -2 161 -3 2 -765
3 -765 21 -17 c20 -17 61 -18 553 -18 465 0 534 2 554 16 l22 15 0 770 0 769
168 -2 167 -3 3 -814 c1 -581 5 -818 13 -828 17 -20 67 -16 79 6 7 13 10 301
10 864 0 805 -1 845 -18 860 -16 15 -49 17 -255 17 -201 0 -238 -2 -251 -16
-14 -14 -16 -98 -16 -779 0 -525 -3 -766 -11 -770 -5 -4 -219 -4 -475 0 l-464
8 0 768 c0 749 0 769 -19 779 -12 6 -112 10 -254 10 -214 0 -235 -2 -250 -18z"/>
<path d="M1560 2530 c-20 -20 -20 -33 -20 -908 0 -848 1 -890 18 -905 16 -15
49 -17 251 -17 141 0 240 4 252 10 19 10 19 30 19 815 l0 805 473 -2 472 -3 2
-800 c3 -738 4 -801 20 -812 12 -10 80 -13 253 -13 217 0 238 2 253 18 16 17
17 94 17 905 0 874 0 887 -20 907 -22 22 -37 25 -60 10 -13 -8 -16 -120 -20
-872 l-5 -863 -167 -3 -168 -2 0 798 c0 761 -1 800 -18 815 -17 15 -70 17
-559 17 -510 0 -541 -1 -556 -18 -16 -17 -17 -88 -17 -816 l0 -796 -167 2
-168 3 -5 863 c-4 752 -7 864 -20 872 -23 15 -38 12 -60 -10z"/>
</g>
</svg>
